<?xml version="1.0" encoding="UTF-8" standalone="no"?>
<svg width="77px" height="52px" viewBox="0 0 77 52" version="1.1" xmlns="http://www.w3.org/2000/svg" xmlns:xlink="http://www.w3.org/1999/xlink">
    <!-- Generator: Sketch 43.2 (39069) - http://www.bohemiancoding.com/sketch -->
    <title>btn-primary</title>
    <desc>Created with Sketch.</desc>
    <defs>
        <rect id="path-1" x="0" y="0" width="77" height="52" rx="4"></rect>
    </defs>
    <g id="Welcome" stroke="none" stroke-width="1" fill="none" fill-rule="evenodd">
        <g id="Desktop" transform="translate(-690.000000, -216.000000)">
            <g id="btn-primary" transform="translate(690.000000, 216.000000)">
                <g>
                    <g id="BG">
                        <use fill="#4990E2" fill-rule="evenodd" xlink:href="#path-1"></use>
                        <rect stroke="#0275D8" stroke-width="1" x="0.5" y="0.5" width="76" height="51" rx="4"></rect>
                    </g>
                    <path d="M58.401736,42.503234 L47.5721273,32.0891064 C47.3129035,31.8398298 46.8926051,31.8398298 46.6334698,32.0891064 L45.8511962,32.8413617 L44.2762056,31.3268085 C46.9519018,28.5322553 48.4183882,24.9279149 48.4183882,21.106383 C48.4183882,17.0713191 46.7843665,13.2777872 43.8172317,10.4245957 C40.8500968,7.57140426 36.9052747,6 32.7091941,6 C28.5131135,6 24.568203,7.57131915 21.6011566,10.4245957 C18.6341102,13.2778723 17,17.0713191 17,21.106383 C17,25.1414468 18.6340217,28.9349787 21.6011566,31.7881702 C24.5682915,34.6413617 28.5131135,36.212766 32.7091941,36.212766 C36.683222,36.212766 40.4313914,34.8025532 43.3375481,32.2295319 L44.9125386,33.7440851 L44.130265,34.4963404 C43.8710412,34.745617 43.8710412,35.1497872 44.130265,35.3989787 L54.9598737,45.8130213 C55.0894413,45.937617 55.2593661,46 55.4292024,46 C55.5990387,46 55.7689635,45.9377021 55.8985312,45.8130213 L58.401736,43.4058723 C58.6609598,43.1565957 58.6609598,42.7524255 58.401736,42.503234 L58.401736,42.503234 L58.401736,42.503234 L58.401736,42.503234 L58.401736,42.503234 Z M22.5398141,30.8855319 C19.8234953,28.2733617 18.3275375,24.8004255 18.3275375,21.106383 C18.3275375,17.4123404 19.8234953,13.9394043 22.5398141,11.327234 C25.2561329,8.71506383 28.867743,7.27659574 32.7091941,7.27659574 C36.5506452,7.27659574 40.1621668,8.71514894 42.8785741,11.327234 C45.5949814,13.9393191 47.0908507,17.4123404 47.0908507,21.106383 C47.0908507,24.8004255 45.5948929,28.2733617 42.8785741,30.8855319 C40.1622553,33.4977021 36.5506452,34.9361702 32.7091941,34.9361702 C28.867743,34.9361702 25.2562214,33.497617 22.5398141,30.8855319 L22.5398141,30.8855319 L22.5398141,30.8855319 L22.5398141,30.8855319 L22.5398141,30.8855319 Z M55.4292024,44.4590638 L45.5382513,34.9476596 L47.1027985,33.4431489 L56.9937497,42.9545532 L55.4292024,44.4590638 L55.4292024,44.4590638 L55.4292024,44.4590638 L55.4292024,44.4590638 Z M38.100147,18.630383 L39.6695619,17.1211915 C39.8987834,16.9008511 39.9288742,16.5535319 39.7408949,16.2995745 C39.179789,15.5417872 38.4956647,14.884 37.7077269,14.3445106 C37.443724,14.1636596 37.0825453,14.192766 36.8534123,14.4131064 L35.2839974,15.9222979 C35.0934515,15.8344681 34.898746,15.7565957 34.7005004,15.6890213 L34.7005004,13.5547234 C34.7005004,13.2429787 34.4663228,12.9768511 34.1466518,12.9252766 C33.6668797,12.8477447 33.1832135,12.8085106 32.7091941,12.8085106 C32.2351747,12.8085106 31.7515085,12.8477447 31.2717365,12.9252766 C30.9520654,12.9768511 30.7178878,13.2429787 30.7178878,13.5547234 L30.7178878,15.6890213 C30.5196422,15.7565957 30.3249367,15.8344681 30.1343908,15.9222979 L28.564976,14.4131064 C28.335843,14.192766 27.9747528,14.1637447 27.7106613,14.3444255 C26.922635,14.884 26.2385992,15.5417872 25.6774933,16.2995745 C25.489514,16.5534468 25.5196934,16.900766 25.7489148,17.1211064 L27.3183297,18.6302979 C27.2269951,18.8135319 27.1460153,19.000766 27.0757444,19.1914043 L24.8561901,19.1914043 C24.5320054,19.1914043 24.2552581,19.4165957 24.2016256,19.724 C24.1209998,20.1854468 24.0802002,20.6505532 24.0802002,21.106383 C24.0802002,21.5621277 24.1209998,22.027234 24.2016256,22.4886809 C24.2552581,22.7960851 24.5320054,23.0212766 24.8561901,23.0212766 L27.0757444,23.0212766 C27.1460153,23.2119149 27.2269066,23.3991489 27.3183297,23.582383 L25.7489148,25.0915745 C25.5196934,25.3119149 25.4896025,25.659234 25.6775818,25.9131915 C26.2386877,26.6708936 26.9227235,27.3286809 27.7106613,27.8682553 C27.9747528,28.0491064 28.335843,28.02 28.5650645,27.7996596 L30.1344793,26.2904681 C30.3249367,26.3782979 30.5197307,26.4561702 30.7179763,26.5237447 L30.7179763,28.6581277 C30.7179763,28.9698723 30.9521539,29.236 31.271825,29.2875745 C31.751597,29.3650213 32.2352632,29.4043404 32.7092826,29.4043404 C33.183302,29.4043404 33.6669682,29.3651064 34.1467403,29.2875745 C34.4664113,29.236 34.7005889,28.9698723 34.7005889,28.6581277 L34.7005889,26.5237447 C34.8988345,26.4561702 35.09354,26.378383 35.2840859,26.2904681 L36.8535008,27.7996596 C37.0826338,28.0200851 37.4438125,28.0490213 37.7078154,27.8682553 C38.4958417,27.3286809 39.1798776,26.6708936 39.7409834,25.9131064 C39.9289627,25.659234 39.8987834,25.3119149 39.6696504,25.0915745 L38.1002355,23.582383 C38.1915701,23.399234 38.2725499,23.2119149 38.3428209,23.0212766 L40.5623751,23.0212766 C40.8865598,23.0212766 41.1633071,22.7960851 41.2169396,22.4886809 C41.2974769,22.0273191 41.3383651,21.5622128 41.3383651,21.106383 C41.3383651,20.6505532 41.2975654,20.1854468 41.2169396,19.7240851 C41.1633071,19.4166809 40.8865598,19.1914894 40.5623751,19.1914894 L38.3428209,19.1914894 C38.2723729,19.0008511 38.1914816,18.813617 38.100147,18.630383 L38.100147,18.630383 L38.100147,18.630383 L38.100147,18.630383 L38.100147,18.630383 Z M32.7091941,17.9148936 C30.8791394,17.9148936 29.3903503,19.3465532 29.3903503,21.106383 C29.3903503,22.8662128 30.8791394,24.2978723 32.7091941,24.2978723 C34.5392489,24.2978723 36.0280379,22.8662128 36.0280379,21.106383 C36.0280379,19.3465532 34.5392489,17.9148936 32.7091941,17.9148936 L32.7091941,17.9148936 L32.7091941,17.9148936 L32.7091941,17.9148936 Z M32.7091941,23.0212766 C31.6111436,23.0212766 30.7178878,22.1622979 30.7178878,21.106383 C30.7178878,20.0504681 31.6111436,19.1914894 32.7091941,19.1914894 C33.8072447,19.1914894 34.7005004,20.0504681 34.7005004,21.106383 C34.7005004,22.1622979 33.8072447,23.0212766 32.7091941,23.0212766 L32.7091941,23.0212766 L32.7091941,23.0212766 L32.7091941,23.0212766 Z M40.0106505,21.106383 C40.0106505,21.3171064 40.0002957,21.5304681 39.9796747,21.7446809 L37.851986,21.7446809 C37.5491304,21.7446809 37.2845965,21.9417872 37.2091923,22.2239149 C37.1017503,22.6253617 36.9343921,23.0125957 36.7118083,23.3748085 C36.5577254,23.625617 36.5996756,23.9449362 36.8139402,24.1508936 L38.3187482,25.5979574 C38.0347437,25.9257872 37.7209138,26.2275745 37.3800022,26.5006809 L35.8751941,25.053617 C35.6610181,24.8476596 35.3290452,24.807234 35.0682283,24.9554043 C34.6913847,25.1695319 34.2886098,25.3304681 33.8713205,25.4337872 C33.5780232,25.506383 33.3729629,25.7606809 33.3729629,26.0519149 L33.3729629,28.0979574 C32.9275298,28.137617 32.4908584,28.137617 32.0454254,28.0979574 L32.0454254,26.0519149 C32.0454254,25.7606809 31.8404536,25.5062979 31.5470678,25.4337872 C31.1296015,25.3304681 30.7269151,25.1695319 30.3502484,24.9554894 C30.0893431,24.8073191 29.7573702,24.8476596 29.5431941,25.0537021 L28.0383861,26.5006809 C27.6974744,26.2275745 27.3837331,25.9258723 27.0997285,25.5980426 L28.6044481,24.1509787 C28.8186241,23.9450213 28.8606628,23.6257872 28.70658,23.3749787 C28.4839077,23.0125957 28.3165494,22.6252766 28.2091074,22.224 C28.1336148,21.9419574 27.8691693,21.744766 27.5663137,21.744766 L25.4387136,21.744766 C25.4180925,21.5305532 25.4077377,21.3171915 25.4077377,21.1064681 C25.4077377,20.8957447 25.4180925,20.682383 25.4387136,20.4681702 L27.5663137,20.4681702 C27.8691693,20.4681702 28.1336148,20.2710638 28.2091074,19.9890213 C28.3165494,19.5876596 28.4839077,19.2004255 28.70658,18.8380426 C28.8606628,18.587234 28.8186241,18.268 28.6044481,18.0620426 L27.0997285,16.6149787 C27.3837331,16.2871489 27.6974744,15.9854468 28.0383861,15.7123404 L29.5431941,17.1593191 C29.7573702,17.3652766 30.0894316,17.4057021 30.3501599,17.2575319 C30.7270036,17.0434043 31.1297785,16.8824681 31.5470678,16.7791489 C31.8403651,16.7065532 32.0453368,16.4522553 32.0453368,16.1610213 L32.0453368,14.1148936 C32.4907699,14.075234 32.9274413,14.075234 33.3728744,14.1148936 L33.3728744,16.1609362 C33.3728744,16.4521702 33.5778462,16.7065532 33.871232,16.7790638 C34.2885213,16.8822979 34.6912962,17.043234 35.0681398,17.2574468 C35.3288682,17.4055319 35.6609296,17.3651915 35.8751056,17.159234 L37.3799137,15.7121702 C37.7208253,15.9852766 38.0345667,16.2870638 38.3185712,16.6148936 L36.8138517,18.0619574 C36.5996756,18.2679149 36.5576369,18.587234 36.7117198,18.8380426 C36.9343036,19.2003404 37.1016618,19.5875745 37.2091038,19.9889362 C37.2845965,20.2709787 37.5490419,20.4681702 37.8518975,20.4681702 L39.9795862,20.4681702 C40.0002957,20.6822979 40.0106505,20.8956596 40.0106505,21.106383 L40.0106505,21.106383 L40.0106505,21.106383 L40.0106505,21.106383 Z M42.2490558,13.8410213 C42.0210734,13.5649362 41.6036956,13.5188085 41.316505,13.7379574 C41.0294028,13.9571064 40.9814345,14.3586383 41.2093284,14.6347234 C44.6309237,18.7794043 44.2724,24.7308085 40.3753693,28.4782979 C36.1482243,32.543234 29.2701639,32.543234 25.0431074,28.4782979 C20.8160509,24.4133617 20.8159624,17.799234 25.0431074,13.734383 C28.9401381,9.98680851 35.1290295,9.64221277 39.4391014,12.9324255 C39.726115,13.1515745 40.1436698,13.1054468 40.3716522,12.8293617 C40.5996347,12.5532766 40.5515778,12.1517447 40.2644757,11.9325957 C35.4258669,8.23880851 28.4785975,8.6253617 24.1043613,12.8316596 C19.3596537,17.3942979 19.3596537,24.8182979 24.1043613,29.3809362 C26.4767594,31.6622979 29.5929325,32.8028936 32.7091941,32.8028936 C35.8254557,32.8028936 38.9416288,31.6622128 41.3140269,29.3809362 C45.6882631,25.1746383 46.0901529,18.4939574 42.2490558,13.8410213 L42.2490558,13.8410213 L42.2490558,13.8410213 L42.2490558,13.8410213 Z" id="search-engine" fill="#FFFFFF"></path>
                </g>
            </g>
        </g>
    </g>
</svg>