<svg width="432" height="74" viewBox="0 0 432 74" version="1.1" xmlns="http://www.w3.org/2000/svg" xmlns:xlink="http://www.w3.org/1999/xlink" xmlns:figma="http://www.figma.com/figma/ns">
<title>Frame</title>
<desc>Created using Figma</desc>
<g id="Canvas" transform="translate(-271 -199)" figma:type="canvas">
<mask id="mask0_alpha" mask-type="alpha">
<path d="M 271 199L 703 199L 703 273L 271 273L 271 199Z" fill="#FFFFFF"/>
</mask>
<g id="Frame" mask="url(#mask0_alpha)" figma:type="frame">
<g id="Group" figma:type="frame">
<g id="Machine Learned Sear" figma:type="text">
<use xlink:href="#path0_fill" transform="translate(341 246)" fill="#9B9B9B"/>
</g>
<g id="FOTO H" figma:type="text">
<use xlink:href="#path1_fill" transform="translate(238 181)" fill="#9B9B9B"/>
</g>
<g id="H" figma:type="text">
<use xlink:href="#path2_fill" transform="translate(510.352 191)" fill="#9B9B9B"/>
</g>
<g id="UND" figma:type="text">
<use xlink:href="#path3_fill" transform="translate(592.106 191)" fill="#9B9B9B"/>
</g>
<g id="[]" figma:type="instance">
<g id="[" figma:type="text">
<use xlink:href="#path4_fill" transform="translate(268 187)" fill="#9B9B9B"/>
</g>
</g>
<g id="search-engine" figma:type="instance">
<g id="search-engine" figma:type="vector-operation">
<use xlink:href="#path5_fill" transform="translate(287 215)" fill="#4A90E2"/>
</g>
</g>
<g id="Stroke 79" figma:type="instance">
<g id="Stroke 79" figma:type="vector">
<use xlink:href="#path6_stroke" transform="translate(561.824 204.141)" fill="#4A90E2"/>
</g>
<g id="Stroke 81" figma:type="vector">
<use xlink:href="#path7_stroke" transform="translate(573.941 205.019)" fill="#4A90E2"/>
</g>
<g id="Stroke 83" figma:type="vector">
<use xlink:href="#path8_stroke" transform="translate(583.029 213.793)" fill="#4A90E2"/>
</g>
<g id="Stroke 85" figma:type="vector">
<use xlink:href="#path9_stroke" transform="translate(552.736 213.355)" fill="#4A90E2"/>
</g>
<g id="Stroke 87" figma:type="vector">
<use xlink:href="#path10_stroke" transform="translate(559.66 218.619)" fill="#4A90E2"/>
</g>
</g>
<g id="]" figma:type="text">
<use xlink:href="#path11_fill" transform="translate(271 188)" fill="#9B9B9B"/>
</g>
</g>
</g>
</g>
<defs>
<path id="path0_fill" d="M 21.5508 4.9375L 27.1289 18.8594L 32.707 4.9375L 35.625 4.9375L 35.625 22L 33.375 22L 33.375 15.3555L 33.5859 8.18359L 27.9844 22L 26.2617 22L 20.6719 8.21875L 20.8945 15.3555L 20.8945 22L 18.6445 22L 18.6445 4.9375L 21.5508 4.9375ZM 47.0859 22C 46.9609 21.75 46.8594 21.3047 46.7812 20.6641C 45.7734 21.7109 44.5703 22.2344 43.1719 22.2344C 41.9219 22.2344 40.8945 21.8828 40.0898 21.1797C 39.293 20.4687 38.8945 19.5703 38.8945 18.4844C 38.8945 17.1641 39.3945 16.1406 40.3945 15.4141C 41.4023 14.6797 42.8164 14.3125 44.6367 14.3125L 46.7461 14.3125L 46.7461 13.3164C 46.7461 12.5586 46.5195 11.957 46.0664 11.5117C 45.6133 11.0586 44.9453 10.832 44.0625 10.832C 43.2891 10.832 42.6406 11.0273 42.1172 11.418C 41.5938 11.8086 41.332 12.2813 41.332 12.8359L 39.1523 12.8359C 39.1523 12.2031 39.375 11.5938 39.8203 11.0078C 40.2734 10.4141 40.8828 9.94531 41.6484 9.60156C 42.4219 9.25781 43.2695 9.08594 44.1914 9.08594C 45.6523 9.08594 46.7969 9.45313 47.625 10.1875C 48.4531 10.9141 48.8828 11.918 48.9141 13.1992L 48.9141 19.0352C 48.9141 20.1992 49.0625 21.125 49.3594 21.8125L 49.3594 22L 47.0859 22ZM 43.4883 20.3477C 44.168 20.3477 44.8125 20.1719 45.4219 19.8203C 46.0312 19.4688 46.4727 19.0117 46.7461 18.4492L 46.7461 15.8477L 45.0469 15.8477C 42.3906 15.8477 41.0625 16.625 41.0625 18.1797C 41.0625 18.8594 41.2891 19.3906 41.7422 19.7734C 42.1953 20.1563 42.7773 20.3477 43.4883 20.3477ZM 57.3984 20.4648C 58.1719 20.4648 58.8477 20.2305 59.4258 19.7617C 60.0039 19.293 60.3242 18.707 60.3867 18.0039L 62.4375 18.0039C 62.3984 18.7305 62.1484 19.4219 61.6875 20.0781C 61.2266 20.7344 60.6094 21.2578 59.8359 21.6484C 59.0703 22.0391 58.2578 22.2344 57.3984 22.2344C 55.6719 22.2344 54.2969 21.6602 53.2734 20.5117C 52.2578 19.3555 51.75 17.7773 51.75 15.7773L 51.75 15.4141C 51.75 14.1797 51.9766 13.082 52.4297 12.1211C 52.8828 11.1602 53.5312 10.4141 54.375 9.88281C 55.2266 9.35156 56.2305 9.08594 57.3867 9.08594C 58.8086 9.08594 59.9883 9.51172 60.9258 10.3633C 61.8711 11.2148 62.375 12.3203 62.4375 13.6797L 60.3867 13.6797C 60.3242 12.8594 60.0117 12.1875 59.4492 11.6641C 58.8945 11.1328 58.207 10.8672 57.3867 10.8672C 56.2852 10.8672 55.4297 11.2656 54.8203 12.0625C 54.2187 12.8516 53.918 13.9961 53.918 15.4961L 53.918 15.9062C 53.918 17.3672 54.2187 18.4922 54.8203 19.2812C 55.4219 20.0703 56.2812 20.4648 57.3984 20.4648ZM 67.043 10.8555C 68.0039 9.67578 69.2539 9.08594 70.793 9.08594C 73.4727 9.08594 74.8242 10.5977 74.8477 13.6211L 74.8477 22L 72.6797 22L 72.6797 13.6094C 72.6719 12.6953 72.4609 12.0195 72.0469 11.582C 71.6406 11.1445 71.0039 10.9258 70.1367 10.9258C 69.4336 10.9258 68.8164 11.1133 68.2852 11.4883C 67.7539 11.8633 67.3398 12.3555 67.043 12.9648L 67.043 22L 64.875 22L 64.875 4L 67.043 4L 67.043 10.8555ZM 80.4492 22L 78.2812 22L 78.2812 9.32031L 80.4492 9.32031L 80.4492 22ZM 78.1055 5.95703C 78.1055 5.60547 78.2109 5.30859 78.4219 5.06641C 78.6406 4.82422 78.9609 4.70312 79.3828 4.70312C 79.8047 4.70312 80.125 4.82422 80.3438 5.06641C 80.5625 5.30859 80.6719 5.60547 80.6719 5.95703C 80.6719 6.30859 80.5625 6.60156 80.3438 6.83594C 80.125 7.07031 79.8047 7.1875 79.3828 7.1875C 78.9609 7.1875 78.6406 7.07031 78.4219 6.83594C 78.2109 6.60156 78.1055 6.30859 78.1055 5.95703ZM 85.9805 9.32031L 86.0508 10.9141C 87.0195 9.69531 88.2852 9.08594 89.8477 9.08594C 92.5273 9.08594 93.8789 10.5977 93.9023 13.6211L 93.9023 22L 91.7344 22L 91.7344 13.6094C 91.7266 12.6953 91.5156 12.0195 91.1016 11.582C 90.6953 11.1445 90.0586 10.9258 89.1914 10.9258C 88.4883 10.9258 87.8711 11.1133 87.3398 11.4883C 86.8086 11.8633 86.3945 12.3555 86.0977 12.9648L 86.0977 22L 83.9297 22L 83.9297 9.32031L 85.9805 9.32031ZM 102.434 22.2344C 100.715 22.2344 99.3164 21.6719 98.2383 20.5469C 97.1602 19.4141 96.6211 17.9023 96.6211 16.0117L 96.6211 15.6133C 96.6211 14.3555 96.8594 13.2344 97.3359 12.25C 97.8203 11.2578 98.4922 10.4844 99.3516 9.92969C 100.219 9.36719 101.156 9.08594 102.164 9.08594C 103.813 9.08594 105.094 9.62891 106.008 10.7148C 106.922 11.8008 107.379 13.3555 107.379 15.3789L 107.379 16.2812L 98.7891 16.2812C 98.8203 17.5312 99.1836 18.543 99.8789 19.3164C 100.582 20.082 101.473 20.4648 102.551 20.4648C 103.316 20.4648 103.965 20.3086 104.496 19.9961C 105.027 19.6836 105.492 19.2695 105.891 18.7539L 107.215 19.7852C 106.152 21.418 104.559 22.2344 102.434 22.2344ZM 102.164 10.8672C 101.289 10.8672 100.555 11.1875 99.9609 11.8281C 99.3672 12.4609 99 13.3516 98.8594 14.5L 105.211 14.5L 105.211 14.3359C 105.148 13.2344 104.852 12.3828 104.32 11.7812C 103.789 11.1719 103.07 10.8672 102.164 10.8672ZM 118.453 20.1602L 126.539 20.1602L 126.539 22L 116.191 22L 116.191 4.9375L 118.453 4.9375L 118.453 20.1602ZM 134.027 22.2344C 132.309 22.2344 130.91 21.6719 129.832 20.5469C 128.754 19.4141 128.215 17.9023 128.215 16.0117L 128.215 15.6133C 128.215 14.3555 128.453 13.2344 128.93 12.25C 129.414 11.2578 130.086 10.4844 130.945 9.92969C 131.812 9.36719 132.75 9.08594 133.758 9.08594C 135.406 9.08594 136.688 9.62891 137.602 10.7148C 138.516 11.8008 138.973 13.3555 138.973 15.3789L 138.973 16.2812L 130.383 16.2812C 130.414 17.5312 130.777 18.543 131.473 19.3164C 132.176 20.082 133.066 20.4648 134.145 20.4648C 134.91 20.4648 135.559 20.3086 136.09 19.9961C 136.621 19.6836 137.086 19.2695 137.484 18.7539L 138.809 19.7852C 137.746 21.418 136.152 22.2344 134.027 22.2344ZM 133.758 10.8672C 132.883 10.8672 132.148 11.1875 131.555 11.8281C 130.961 12.4609 130.594 13.3516 130.453 14.5L 136.805 14.5L 136.805 14.3359C 136.742 13.2344 136.445 12.3828 135.914 11.7812C 135.383 11.1719 134.664 10.8672 133.758 10.8672ZM 149.32 22C 149.195 21.75 149.094 21.3047 149.016 20.6641C 148.008 21.7109 146.805 22.2344 145.406 22.2344C 144.156 22.2344 143.129 21.8828 142.324 21.1797C 141.527 20.4687 141.129 19.5703 141.129 18.4844C 141.129 17.1641 141.629 16.1406 142.629 15.4141C 143.637 14.6797 145.051 14.3125 146.871 14.3125L 148.98 14.3125L 148.98 13.3164C 148.98 12.5586 148.754 11.957 148.301 11.5117C 147.848 11.0586 147.18 10.832 146.297 10.832C 145.523 10.832 144.875 11.0273 144.352 11.418C 143.828 11.8086 143.566 12.2813 143.566 12.8359L 141.387 12.8359C 141.387 12.2031 141.609 11.5938 142.055 11.0078C 142.508 10.4141 143.117 9.94531 143.883 9.60156C 144.656 9.25781 145.504 9.08594 146.426 9.08594C 147.887 9.08594 149.031 9.45313 149.859 10.1875C 150.688 10.9141 151.117 11.918 151.148 13.1992L 151.148 19.0352C 151.148 20.1992 151.297 21.125 151.594 21.8125L 151.594 22L 149.32 22ZM 145.723 20.3477C 146.402 20.3477 147.047 20.1719 147.656 19.8203C 148.266 19.4688 148.707 19.0117 148.98 18.4492L 148.98 15.8477L 147.281 15.8477C 144.625 15.8477 143.297 16.625 143.297 18.1797C 143.297 18.8594 143.523 19.3906 143.977 19.7734C 144.43 20.1563 145.012 20.3477 145.723 20.3477ZM 160.676 11.2656C 160.348 11.2109 159.992 11.1836 159.609 11.1836C 158.187 11.1836 157.223 11.7891 156.715 13L 156.715 22L 154.547 22L 154.547 9.32031L 156.656 9.32031L 156.691 10.7852C 157.402 9.65234 158.41 9.08594 159.715 9.08594C 160.137 9.08594 160.457 9.14062 160.676 9.25L 160.676 11.2656ZM 164.73 9.32031L 164.801 10.9141C 165.77 9.69531 167.035 9.08594 168.598 9.08594C 171.277 9.08594 172.629 10.5977 172.652 13.6211L 172.652 22L 170.484 22L 170.484 13.6094C 170.477 12.6953 170.266 12.0195 169.852 11.582C 169.445 11.1445 168.809 10.9258 167.941 10.9258C 167.238 10.9258 166.621 11.1133 166.09 11.4883C 165.559 11.8633 165.145 12.3555 164.848 12.9648L 164.848 22L 162.68 22L 162.68 9.32031L 164.73 9.32031ZM 181.184 22.2344C 179.465 22.2344 178.066 21.6719 176.988 20.5469C 175.91 19.4141 175.371 17.9023 175.371 16.0117L 175.371 15.6133C 175.371 14.3555 175.609 13.2344 176.086 12.25C 176.57 11.2578 177.242 10.4844 178.102 9.92969C 178.969 9.36719 179.906 9.08594 180.914 9.08594C 182.563 9.08594 183.844 9.62891 184.758 10.7148C 185.672 11.8008 186.129 13.3555 186.129 15.3789L 186.129 16.2812L 177.539 16.2812C 177.57 17.5312 177.934 18.543 178.629 19.3164C 179.332 20.082 180.223 20.4648 181.301 20.4648C 182.066 20.4648 182.715 20.3086 183.246 19.9961C 183.777 19.6836 184.242 19.2695 184.641 18.7539L 185.965 19.7852C 184.902 21.418 183.309 22.2344 181.184 22.2344ZM 180.914 10.8672C 180.039 10.8672 179.305 11.1875 178.711 11.8281C 178.117 12.4609 177.75 13.3516 177.609 14.5L 183.961 14.5L 183.961 14.3359C 183.898 13.2344 183.602 12.3828 183.07 11.7812C 182.539 11.1719 181.82 10.8672 180.914 10.8672ZM 188.121 15.5547C 188.121 13.6094 188.582 12.0469 189.504 10.8672C 190.426 9.67969 191.633 9.08594 193.125 9.08594C 194.609 9.08594 195.785 9.59375 196.652 10.6094L 196.652 4L 198.82 4L 198.82 22L 196.828 22L 196.723 20.6406C 195.855 21.7031 194.648 22.2344 193.102 22.2344C 191.633 22.2344 190.434 21.6328 189.504 20.4297C 188.582 19.2266 188.121 17.6563 188.121 15.7188L 188.121 15.5547ZM 190.289 15.8008C 190.289 17.2383 190.586 18.3633 191.18 19.1758C 191.773 19.9883 192.594 20.3945 193.641 20.3945C 195.016 20.3945 196.02 19.7773 196.652 18.543L 196.652 12.7188C 196.004 11.5234 195.008 10.9258 193.664 10.9258C 192.602 10.9258 191.773 11.3359 191.18 12.1562C 190.586 12.9766 190.289 14.1914 190.289 15.8008ZM 213.516 14.3945C 211.586 13.8398 210.18 13.1602 209.297 12.3555C 208.422 11.543 207.984 10.543 207.984 9.35547C 207.984 8.01172 208.52 6.90234 209.59 6.02734C 210.668 5.14453 212.066 4.70312 213.785 4.70312C 214.957 4.70312 216 4.92969 216.914 5.38281C 217.836 5.83594 218.547 6.46094 219.047 7.25781C 219.555 8.05469 219.809 8.92578 219.809 9.87109L 217.547 9.87109C 217.547 8.83984 217.219 8.03125 216.562 7.44531C 215.906 6.85156 214.98 6.55469 213.785 6.55469C 212.676 6.55469 211.809 6.80078 211.184 7.29297C 210.566 7.77734 210.258 8.45312 210.258 9.32031C 210.258 10.0156 210.551 10.6055 211.137 11.0898C 211.73 11.5664 212.734 12.0039 214.148 12.4023C 215.57 12.8008 216.68 13.2422 217.477 13.7266C 218.281 14.2031 218.875 14.7617 219.258 15.4023C 219.648 16.043 219.844 16.7969 219.844 17.6641C 219.844 19.0469 219.305 20.1563 218.227 20.9922C 217.148 21.8203 215.707 22.2344 213.902 22.2344C 212.73 22.2344 211.637 22.0117 210.621 21.5664C 209.605 21.1133 208.82 20.4961 208.266 19.7148C 207.719 18.9336 207.445 18.0469 207.445 17.0547L 209.707 17.0547C 209.707 18.0859 210.086 18.9023 210.844 19.5039C 211.609 20.0977 212.629 20.3945 213.902 20.3945C 215.09 20.3945 216 20.1523 216.633 19.668C 217.266 19.1836 217.582 18.5234 217.582 17.6875C 217.582 16.8516 217.289 16.207 216.703 15.7539C 216.117 15.293 215.055 14.8398 213.516 14.3945ZM 227.66 22.2344C 225.941 22.2344 224.543 21.6719 223.465 20.5469C 222.387 19.4141 221.848 17.9023 221.848 16.0117L 221.848 15.6133C 221.848 14.3555 222.086 13.2344 222.562 12.25C 223.047 11.2578 223.719 10.4844 224.578 9.92969C 225.445 9.36719 226.383 9.08594 227.391 9.08594C 229.039 9.08594 230.32 9.62891 231.234 10.7148C 232.148 11.8008 232.605 13.3555 232.605 15.3789L 232.605 16.2812L 224.016 16.2812C 224.047 17.5312 224.41 18.543 225.105 19.3164C 225.809 20.082 226.699 20.4648 227.777 20.4648C 228.543 20.4648 229.191 20.3086 229.723 19.9961C 230.254 19.6836 230.719 19.2695 231.117 18.7539L 232.441 19.7852C 231.379 21.418 229.785 22.2344 227.66 22.2344ZM 227.391 10.8672C 226.516 10.8672 225.781 11.1875 225.188 11.8281C 224.594 12.4609 224.227 13.3516 224.086 14.5L 230.438 14.5L 230.438 14.3359C 230.375 13.2344 230.078 12.3828 229.547 11.7812C 229.016 11.1719 228.297 10.8672 227.391 10.8672ZM 242.953 22C 242.828 21.75 242.727 21.3047 242.648 20.6641C 241.641 21.7109 240.437 22.2344 239.039 22.2344C 237.789 22.2344 236.762 21.8828 235.957 21.1797C 235.16 20.4687 234.762 19.5703 234.762 18.4844C 234.762 17.1641 235.262 16.1406 236.262 15.4141C 237.27 14.6797 238.684 14.3125 240.504 14.3125L 242.613 14.3125L 242.613 13.3164C 242.613 12.5586 242.387 11.957 241.934 11.5117C 241.48 11.0586 240.812 10.832 239.93 10.832C 239.156 10.832 238.508 11.0273 237.984 11.418C 237.461 11.8086 237.199 12.2813 237.199 12.8359L 235.02 12.8359C 235.02 12.2031 235.242 11.5938 235.688 11.0078C 236.141 10.4141 236.75 9.94531 237.516 9.60156C 238.289 9.25781 239.137 9.08594 240.059 9.08594C 241.52 9.08594 242.664 9.45313 243.492 10.1875C 244.32 10.9141 244.75 11.918 244.781 13.1992L 244.781 19.0352C 244.781 20.1992 244.93 21.125 245.227 21.8125L 245.227 22L 242.953 22ZM 239.355 20.3477C 240.035 20.3477 240.68 20.1719 241.289 19.8203C 241.898 19.4688 242.34 19.0117 242.613 18.4492L 242.613 15.8477L 240.914 15.8477C 238.258 15.8477 236.93 16.625 236.93 18.1797C 236.93 18.8594 237.156 19.3906 237.609 19.7734C 238.062 20.1563 238.645 20.3477 239.355 20.3477ZM 254.309 11.2656C 253.98 11.2109 253.625 11.1836 253.242 11.1836C 251.82 11.1836 250.855 11.7891 250.348 13L 250.348 22L 248.18 22L 248.18 9.32031L 250.289 9.32031L 250.324 10.7852C 251.035 9.65234 252.043 9.08594 253.348 9.08594C 253.77 9.08594 254.09 9.14062 254.309 9.25L 254.309 11.2656ZM 261.164 20.4648C 261.938 20.4648 262.613 20.2305 263.191 19.7617C 263.77 19.293 264.09 18.707 264.152 18.0039L 266.203 18.0039C 266.164 18.7305 265.914 19.4219 265.453 20.0781C 264.992 20.7344 264.375 21.2578 263.602 21.6484C 262.836 22.0391 262.023 22.2344 261.164 22.2344C 259.437 22.2344 258.063 21.6602 257.039 20.5117C 256.023 19.3555 255.516 17.7773 255.516 15.7773L 255.516 15.4141C 255.516 14.1797 255.742 13.082 256.195 12.1211C 256.648 11.1602 257.297 10.4141 258.141 9.88281C 258.992 9.35156 259.996 9.08594 261.152 9.08594C 262.574 9.08594 263.754 9.51172 264.691 10.3633C 265.637 11.2148 266.141 12.3203 266.203 13.6797L 264.152 13.6797C 264.09 12.8594 263.777 12.1875 263.215 11.6641C 262.66 11.1328 261.973 10.8672 261.152 10.8672C 260.051 10.8672 259.195 11.2656 258.586 12.0625C 257.984 12.8516 257.684 13.9961 257.684 15.4961L 257.684 15.9062C 257.684 17.3672 257.984 18.4922 258.586 19.2812C 259.188 20.0703 260.047 20.4648 261.164 20.4648ZM 270.809 10.8555C 271.77 9.67578 273.02 9.08594 274.559 9.08594C 277.238 9.08594 278.59 10.5977 278.613 13.6211L 278.613 22L 276.445 22L 276.445 13.6094C 276.437 12.6953 276.227 12.0195 275.812 11.582C 275.406 11.1445 274.77 10.9258 273.902 10.9258C 273.199 10.9258 272.582 11.1133 272.051 11.4883C 271.52 11.8633 271.105 12.3555 270.809 12.9648L 270.809 22L 268.641 22L 268.641 4L 270.809 4L 270.809 10.8555ZM 297.797 14.1133L 290.402 14.1133L 290.402 20.1602L 298.992 20.1602L 298.992 22L 288.152 22L 288.152 4.9375L 298.875 4.9375L 298.875 6.78906L 290.402 6.78906L 290.402 12.2734L 297.797 12.2734L 297.797 14.1133ZM 303.504 9.32031L 303.574 10.9141C 304.543 9.69531 305.809 9.08594 307.371 9.08594C 310.051 9.08594 311.402 10.5977 311.426 13.6211L 311.426 22L 309.258 22L 309.258 13.6094C 309.25 12.6953 309.039 12.0195 308.625 11.582C 308.219 11.1445 307.582 10.9258 306.715 10.9258C 306.012 10.9258 305.395 11.1133 304.863 11.4883C 304.332 11.8633 303.918 12.3555 303.621 12.9648L 303.621 22L 301.453 22L 301.453 9.32031L 303.504 9.32031ZM 314.18 15.5547C 314.18 13.5781 314.637 12.0078 315.551 10.8438C 316.465 9.67188 317.676 9.08594 319.184 9.08594C 320.73 9.08594 321.938 9.63281 322.805 10.7266L 322.91 9.32031L 324.891 9.32031L 324.891 21.6953C 324.891 23.3359 324.402 24.6289 323.426 25.5742C 322.457 26.5195 321.152 26.9922 319.512 26.9922C 318.598 26.9922 317.703 26.7969 316.828 26.4062C 315.953 26.0156 315.285 25.4805 314.824 24.8008L 315.949 23.5C 316.879 24.6484 318.016 25.2227 319.359 25.2227C 320.414 25.2227 321.234 24.9258 321.82 24.332C 322.414 23.7383 322.711 22.9023 322.711 21.8242L 322.711 20.7344C 321.844 21.7344 320.66 22.2344 319.16 22.2344C 317.676 22.2344 316.473 21.6367 315.551 20.4414C 314.637 19.2461 314.18 17.6172 314.18 15.5547ZM 316.359 15.8008C 316.359 17.2305 316.652 18.3555 317.238 19.1758C 317.824 19.9883 318.645 20.3945 319.699 20.3945C 321.066 20.3945 322.07 19.7734 322.711 18.5312L 322.711 12.7422C 322.047 11.5313 321.051 10.9258 319.723 10.9258C 318.668 10.9258 317.844 11.3359 317.25 12.1562C 316.656 12.9766 316.359 14.1914 316.359 15.8008ZM 330.527 22L 328.359 22L 328.359 9.32031L 330.527 9.32031L 330.527 22ZM 328.184 5.95703C 328.184 5.60547 328.289 5.30859 328.5 5.06641C 328.719 4.82422 329.039 4.70312 329.461 4.70312C 329.883 4.70312 330.203 4.82422 330.422 5.06641C 330.641 5.30859 330.75 5.60547 330.75 5.95703C 330.75 6.30859 330.641 6.60156 330.422 6.83594C 330.203 7.07031 329.883 7.1875 329.461 7.1875C 329.039 7.1875 328.719 7.07031 328.5 6.83594C 328.289 6.60156 328.184 6.30859 328.184 5.95703ZM 336.059 9.32031L 336.129 10.9141C 337.098 9.69531 338.363 9.08594 339.926 9.08594C 342.605 9.08594 343.957 10.5977 343.98 13.6211L 343.98 22L 341.812 22L 341.812 13.6094C 341.805 12.6953 341.594 12.0195 341.18 11.582C 340.773 11.1445 340.137 10.9258 339.27 10.9258C 338.566 10.9258 337.949 11.1133 337.418 11.4883C 336.887 11.8633 336.473 12.3555 336.176 12.9648L 336.176 22L 334.008 22L 334.008 9.32031L 336.059 9.32031ZM 352.512 22.2344C 350.793 22.2344 349.395 21.6719 348.316 20.5469C 347.238 19.4141 346.699 17.9023 346.699 16.0117L 346.699 15.6133C 346.699 14.3555 346.938 13.2344 347.414 12.25C 347.898 11.2578 348.57 10.4844 349.43 9.92969C 350.297 9.36719 351.234 9.08594 352.242 9.08594C 353.891 9.08594 355.172 9.62891 356.086 10.7148C 357 11.8008 357.457 13.3555 357.457 15.3789L 357.457 16.2812L 348.867 16.2812C 348.898 17.5312 349.262 18.543 349.957 19.3164C 350.66 20.082 351.551 20.4648 352.629 20.4648C 353.395 20.4648 354.043 20.3086 354.574 19.9961C 355.105 19.6836 355.57 19.2695 355.969 18.7539L 357.293 19.7852C 356.23 21.418 354.637 22.2344 352.512 22.2344ZM 352.242 10.8672C 351.367 10.8672 350.633 11.1875 350.039 11.8281C 349.445 12.4609 349.078 13.3516 348.938 14.5L 355.289 14.5L 355.289 14.3359C 355.227 13.2344 354.93 12.3828 354.398 11.7812C 353.867 11.1719 353.148 10.8672 352.242 10.8672Z"/>
<path id="path1_fill" d="M 142.641 44.7319L 126.232 44.7319L 126.232 62L 121.076 62L 121.076 22.8984L 145.299 22.8984L 145.299 27.1416L 126.232 27.1416L 126.232 40.5156L 142.641 40.5156L 142.641 44.7319ZM 181.554 43.7114C 181.554 47.5428 180.91 50.8908 179.621 53.7554C 178.332 56.6021 176.505 58.7773 174.142 60.2812C 171.779 61.7852 169.022 62.5371 165.871 62.5371C 162.791 62.5371 160.061 61.7852 157.68 60.2812C 155.298 58.7594 153.445 56.6021 152.121 53.8091C 150.814 50.9982 150.142 47.7487 150.106 44.0605L 150.106 41.2407C 150.106 37.481 150.76 34.1598 152.067 31.2773C 153.374 28.3949 155.218 26.1927 157.599 24.6709C 159.998 23.1312 162.737 22.3613 165.817 22.3613C 168.95 22.3613 171.707 23.1222 174.088 24.644C 176.487 26.1479 178.332 28.3411 179.621 31.2236C 180.91 34.0882 181.554 37.4272 181.554 41.2407L 181.554 43.7114ZM 176.425 41.187C 176.425 36.55 175.494 32.9961 173.632 30.5254C 171.77 28.0368 169.165 26.7925 165.817 26.7925C 162.558 26.7925 159.989 28.0368 158.109 30.5254C 156.247 32.9961 155.29 36.4336 155.236 40.8379L 155.236 43.7114C 155.236 48.2052 156.176 51.7412 158.056 54.3193C 159.953 56.8796 162.558 58.1597 165.871 58.1597C 169.201 58.1597 171.779 56.9512 173.605 54.5342C 175.431 52.0993 176.371 48.617 176.425 44.0874L 176.425 41.187ZM 215.553 27.1416L 202.985 27.1416L 202.985 62L 197.855 62L 197.855 27.1416L 185.314 27.1416L 185.314 22.8984L 215.553 22.8984L 215.553 27.1416ZM 250.68 43.7114C 250.68 47.5428 250.036 50.8908 248.747 53.7554C 247.457 56.6021 245.631 58.7773 243.268 60.2812C 240.905 61.7852 238.148 62.5371 234.997 62.5371C 231.917 62.5371 229.187 61.7852 226.806 60.2812C 224.424 58.7594 222.571 56.6021 221.247 53.8091C 219.94 50.9982 219.268 47.7487 219.232 44.0605L 219.232 41.2407C 219.232 37.481 219.886 34.1598 221.193 31.2773C 222.5 28.3949 224.344 26.1927 226.725 24.6709C 229.124 23.1312 231.863 22.3613 234.943 22.3613C 238.076 22.3613 240.833 23.1222 243.214 24.644C 245.613 26.1479 247.457 28.3411 248.747 31.2236C 250.036 34.0882 250.68 37.4272 250.68 41.2407L 250.68 43.7114ZM 245.551 41.187C 245.551 36.55 244.62 32.9961 242.758 30.5254C 240.896 28.0368 238.291 26.7925 234.943 26.7925C 231.684 26.7925 229.115 28.0368 227.235 30.5254C 225.373 32.9961 224.415 36.4336 224.362 40.8379L 224.362 43.7114C 224.362 48.2052 225.302 51.7412 227.182 54.3193C 229.079 56.8796 231.684 58.1597 234.997 58.1597C 238.327 58.1597 240.905 56.9512 242.731 54.5342C 244.557 52.0993 245.497 48.617 245.551 44.0874L 245.551 41.187Z"/>
<path id="path2_fill" d="M 35.5068 51L 30.3237 51L 30.3237 32.9263L 10.6118 32.9263L 10.6118 51L 5.45558 51L 5.45558 11.8984L 10.6118 11.8984L 10.6118 28.71L 30.3237 28.71L 30.3237 11.8984L 35.5068 11.8984L 35.5068 51Z"/>
<path id="path3_fill" d="M 33.5292 11.8984L 33.5292 38.4854C 33.5113 42.1735 32.3475 45.1903 30.038 47.5356C 27.7463 49.881 24.6311 51.1969 20.6923 51.4834L 19.3226 51.5371C 15.0437 51.5371 11.633 50.3823 9.09071 48.0728C 6.54839 45.7632 5.25933 42.5853 5.22352 38.5391L 5.22352 11.8984L 10.3261 11.8984L 10.3261 38.3779C 10.3261 41.2067 11.1049 43.4089 12.6625 44.9844C 14.2201 46.542 16.4402 47.3208 19.3226 47.3208C 22.2409 47.3208 24.4699 46.542 26.0097 44.9844C 27.5673 43.4268 28.3461 41.2336 28.3461 38.4048L 28.3461 11.8984L 33.5292 11.8984ZM 71.7177 51L 66.5346 51L 46.8495 20.8682L 46.8495 51L 41.6664 51L 41.6664 11.8984L 46.8495 11.8984L 66.5883 42.1646L 66.5883 11.8984L 71.7177 11.8984L 71.7177 51ZM 80.8754 51L 80.8754 11.8984L 91.913 11.8984C 95.3147 11.8984 98.3225 12.6504 100.936 14.1543C 103.55 15.6582 105.565 17.7977 106.979 20.5728C 108.411 23.3478 109.136 26.5347 109.154 30.1333L 109.154 32.6309C 109.154 36.319 108.438 39.5506 107.006 42.3257C 105.591 45.1007 103.559 47.2313 100.91 48.7173C 98.2777 50.2033 95.2072 50.9642 91.6981 51L 80.8754 51ZM 86.0316 16.1416L 86.0316 46.7837L 91.4564 46.7837C 95.431 46.7837 98.5194 45.5483 100.722 43.0776C 102.942 40.6069 104.052 37.0889 104.052 32.5234L 104.052 30.2407C 104.052 25.8006 103.004 22.3542 100.91 19.9014C 98.8327 17.4307 95.8786 16.1774 92.0472 16.1416L 86.0316 16.1416Z"/>
<path id="path4_fill" d="M 19.0791 20.3203L 12.5508 20.3203L 12.5508 77.4688L 19.0791 77.4688L 19.0791 82.6641L 6.19336 82.6641L 6.19336 15.125L 19.0791 15.125L 19.0791 20.3203Z"/>
<path id="path5_fill" fill-rule="evenodd" d="M 40.8084 36.5032L 30.134 26.0891C 29.8785 25.8398 29.4642 25.8398 29.2088 26.0891L 28.4377 26.8414L 26.8853 25.3268C 29.5226 22.5323 30.9681 18.9279 30.9681 15.1064C 30.9681 11.0713 29.3575 7.27779 26.4329 4.4246C 23.5083 1.5714 19.62 0 15.4841 0C 11.3481 0 7.45974 1.57132 4.53521 4.4246C 1.61069 7.27787 0 11.0713 0 15.1064C 0 19.1414 1.6106 22.935 4.53521 25.7882C 7.45982 28.6414 11.3481 30.2128 15.4841 30.2128C 19.4011 30.2128 23.0956 28.8026 25.9601 26.2295L 27.5125 27.7441L 26.7414 28.4963C 26.4859 28.7456 26.4859 29.1498 26.7414 29.399L 37.4158 39.813C 37.5435 39.9376 37.711 40 37.8784 40C 38.0458 40 38.2133 39.9377 38.341 39.813L 40.8084 37.4059C 41.0639 37.1566 41.0639 36.7524 40.8084 36.5032L 40.8084 36.5032L 40.8084 36.5032L 40.8084 36.5032L 40.8084 36.5032ZM 5.46044 24.8855C 2.78305 22.2734 1.30853 18.8004 1.30853 15.1064C 1.30853 11.4123 2.78305 7.9394 5.46044 5.32723C 8.13783 2.71506 11.6977 1.2766 15.4841 1.2766C 19.2705 1.2766 22.8302 2.71515 25.5077 5.32723C 28.1852 7.93932 29.6596 11.4123 29.6596 15.1064C 29.6596 18.8004 28.1851 22.2734 25.5077 24.8855C 22.8303 27.4977 19.2705 28.9362 15.4841 28.9362C 11.6977 28.9362 8.13792 27.4976 5.46044 24.8855L 5.46044 24.8855L 5.46044 24.8855L 5.46044 24.8855L 5.46044 24.8855ZM 37.8784 38.4591L 28.1292 28.9477L 29.6714 27.4431L 39.4206 36.9546L 37.8784 38.4591L 37.8784 38.4591L 37.8784 38.4591L 37.8784 38.4591ZM 20.7977 12.6304L 22.3447 11.1212C 22.5706 10.9009 22.6003 10.5535 22.415 10.2996C 21.8619 9.54179 21.1876 8.88401 20.4109 8.34452C 20.1507 8.16367 19.7947 8.19277 19.5689 8.41311L 18.022 9.9223C 17.8341 9.83447 17.6422 9.7566 17.4468 9.68903L 17.4468 7.55473C 17.4468 7.24299 17.216 6.97686 16.9009 6.92528C 16.428 6.84775 15.9513 6.80852 15.4841 6.80852C 15.0168 6.80852 14.5401 6.84775 14.0672 6.92528C 13.7521 6.97686 13.5213 7.24299 13.5213 7.55473L 13.5213 9.68903C 13.3259 9.7566 13.134 9.83447 12.9462 9.9223L 11.3992 8.41311C 11.1734 8.19277 10.8175 8.16375 10.5572 8.34443C 9.78043 8.88401 9.10619 9.54179 8.55313 10.2996C 8.36784 10.5535 8.39759 10.9008 8.62353 11.1211L 10.1705 12.6303C 10.0804 12.8135 10.0006 13.0008 9.93134 13.1914L 7.7436 13.1914C 7.42406 13.1914 7.15128 13.4166 7.09841 13.724C 7.01894 14.1855 6.97873 14.6506 6.97873 15.1064C 6.97873 15.5621 7.01894 16.0272 7.09841 16.4887C 7.15128 16.7961 7.42406 17.0213 7.7436 17.0213L 9.93134 17.0213C 10.0006 17.2119 10.0803 17.3992 10.1705 17.5824L 8.62353 19.0916C 8.39759 19.3119 8.36793 19.6592 8.55322 19.9132C 9.10628 20.6709 9.78051 21.3287 10.5572 21.8683C 10.8175 22.0491 11.1734 22.02 11.3993 21.7997L 12.9462 20.2905C 13.134 20.3783 13.326 20.4562 13.5214 20.5238L 13.5214 22.6581C 13.5214 22.9699 13.7522 23.236 14.0673 23.2876C 14.5402 23.365 15.0169 23.4043 15.4841 23.4043C 15.9514 23.4043 16.4281 23.3651 16.901 23.2876C 17.2161 23.236 17.4469 22.9699 17.4469 22.6581L 17.4469 20.5238C 17.6423 20.4562 17.8342 20.3784 18.022 20.2905L 19.569 21.7997C 19.7948 22.0201 20.1508 22.049 20.411 21.8683C 21.1878 21.3287 21.862 20.6709 22.4151 19.9131C 22.6003 19.6592 22.5706 19.3119 22.3448 19.0916L 20.7978 17.5824C 20.8879 17.3992 20.9677 17.2119 21.0369 17.0213L 23.2247 17.0213C 23.5442 17.0213 23.817 16.7961 23.8699 16.4887C 23.9492 16.0273 23.9896 15.5622 23.9896 15.1064C 23.9896 14.6506 23.9493 14.1855 23.8699 13.7241C 23.817 13.4167 23.5442 13.1915 23.2247 13.1915L 21.0369 13.1915C 20.9675 13.0009 20.8878 12.8136 20.7977 12.6304L 20.7977 12.6304L 20.7977 12.6304L 20.7977 12.6304L 20.7977 12.6304ZM 15.484 11.9149C 13.6802 11.9149 12.2128 13.3465 12.2128 15.1064C 12.2128 16.8662 13.6802 18.2979 15.484 18.2979C 17.2879 18.2979 18.7553 16.8662 18.7553 15.1064C 18.7553 13.3465 17.2879 11.9149 15.484 11.9149L 15.484 11.9149L 15.484 11.9149L 15.484 11.9149ZM 15.4841 17.0213C 14.4018 17.0213 13.5213 16.1623 13.5213 15.1064C 13.5213 14.0505 14.4018 13.1915 15.4841 13.1915C 16.5664 13.1915 17.4468 14.0505 17.4468 15.1064C 17.4468 16.1623 16.5664 17.0213 15.4841 17.0213L 15.4841 17.0213L 15.4841 17.0213L 15.4841 17.0213ZM 22.6809 15.1064C 22.6809 15.3171 22.6707 15.5305 22.6503 15.7447L 20.5531 15.7447C 20.2546 15.7447 19.9939 15.9418 19.9195 16.2239C 19.8136 16.6254 19.6487 17.0126 19.4293 17.3748C 19.2774 17.6256 19.3188 17.9449 19.53 18.1509L 21.0132 19.598C 20.7333 19.9258 20.4239 20.2276 20.0879 20.5007L 18.6047 19.0536C 18.3936 18.8477 18.0663 18.8072 17.8093 18.9554C 17.4378 19.1695 17.0408 19.3305 16.6295 19.4338C 16.3404 19.5064 16.1383 19.7607 16.1383 20.0519L 16.1383 22.098C 15.6993 22.1376 15.2688 22.1376 14.8298 22.098L 14.8298 20.0519C 14.8298 19.7607 14.6278 19.5063 14.3386 19.4338C 13.9271 19.3305 13.5302 19.1695 13.1589 18.9555C 12.9017 18.8073 12.5745 18.8477 12.3634 19.0537L 10.8802 20.5007C 10.5442 20.2276 10.2349 19.9259 9.95497 19.598L 11.4381 18.151C 11.6492 17.945 11.6907 17.6258 11.5388 17.375C 11.3193 17.0126 11.1544 16.6253 11.0485 16.224C 10.974 15.942 10.7134 15.7448 10.4149 15.7448L 8.31776 15.7448C 8.29744 15.5305 8.28723 15.3172 8.28723 15.1065C 8.28723 14.8957 8.29744 14.6824 8.31776 14.4682L 10.4149 14.4682C 10.7134 14.4682 10.974 14.2711 11.0485 13.989C 11.1544 13.5877 11.3193 13.2004 11.5388 12.838C 11.6907 12.5872 11.6492 12.268 11.4381 12.062L 9.95497 10.615C 10.2349 10.2871 10.5442 9.98544 10.8802 9.71234L 12.3634 11.1593C 12.5745 11.3653 12.9018 11.4057 13.1588 11.2575C 13.5303 11.0434 13.9273 10.8825 14.3386 10.7791C 14.6277 10.7065 14.8297 10.4523 14.8297 10.161L 14.8297 8.11489C 15.2687 8.07523 15.6992 8.07523 16.1382 8.11489L 16.1382 10.1609C 16.1382 10.4522 16.3402 10.7065 16.6294 10.7791C 17.0407 10.8823 17.4377 11.0432 17.8092 11.2574C 18.0662 11.4055 18.3935 11.3652 18.6046 11.1592L 20.0878 9.71217C 20.4238 9.98527 20.7331 10.2871 21.013 10.6149L 19.5299 12.062C 19.3188 12.2679 19.2773 12.5872 19.4292 12.838C 19.6486 13.2003 19.8136 13.5876 19.9195 13.9889C 19.9939 14.271 20.2545 14.4682 20.553 14.4682L 22.6502 14.4682C 22.6707 14.6823 22.6809 14.8957 22.6809 15.1064L 22.6809 15.1064L 22.6809 15.1064L 22.6809 15.1064ZM 24.8872 7.84102C 24.6625 7.56493 24.2511 7.5188 23.968 7.73795C 23.685 7.9571 23.6377 8.35863 23.8624 8.63472C 27.2349 12.7794 26.8815 18.7308 23.0404 22.4783C 18.8738 26.5432 12.0943 26.5432 7.92785 22.4783C 3.76137 18.4134 3.76129 11.7992 7.92785 7.73438C 11.769 3.9868 17.8692 3.64221 22.1175 6.93242C 22.4004 7.15157 22.812 7.10544 23.0367 6.82936C 23.2614 6.55327 23.2141 6.15174 22.9311 5.93259C 18.1618 2.2388 11.3141 2.62536 7.00256 6.83165C 2.32585 11.3943 2.32585 18.8183 7.00256 23.3809C 9.34095 25.6623 12.4125 26.8029 15.4841 26.8029C 18.5557 26.8029 21.6272 25.6622 23.9656 23.3809C 28.2771 19.1746 28.6732 12.494 24.8872 7.84102L 24.8872 7.84102L 24.8872 7.84102L 24.8872 7.84102Z"/>
<path id="path6_stroke" d="M 7.94332 6.11294C 8.05213 7.66125 7.69906 9.04887 7.09662 10.0366C 6.49253 11.027 5.70025 11.5355 4.90936 11.5927L 5.07187 13.8369C 6.77836 13.7133 8.14684 12.6357 9.01752 11.2082C 9.88985 9.77797 10.3256 7.91565 10.1878 5.95521L 7.94332 6.11294ZM 4.90936 11.5927C 4.11915 11.6499 3.26558 11.2616 2.5304 10.3699C 1.79691 9.48037 1.25336 8.15875 1.14456 6.61044L -1.09991 6.76817C -0.962139 8.72861 -0.270226 10.5101 0.794434 11.8013C 1.85741 13.0905 3.3647 13.9605 5.07187 13.8369L 4.90936 11.5927ZM 1.14456 6.61044C 1.03575 5.06212 1.38882 3.67451 1.99126 2.68678C 2.59535 1.69634 3.38763 1.18792 4.17852 1.13065L 4.01601 -1.11348C 2.30952 -0.989903 0.941042 0.0876576 0.0703641 1.51518C -0.801966 2.94541 -1.23768 4.80773 -1.09991 6.76817L 1.14456 6.61044ZM 4.17852 1.13065C 4.96873 1.07343 5.8223 1.46182 6.55748 2.35343C 7.29097 3.243 7.83452 4.56463 7.94332 6.11294L 10.1878 5.95521C 10.05 3.99477 9.35811 2.21323 8.29345 0.922032C 7.23047 -0.367128 5.72318 -1.2371 4.01601 -1.11348L 4.17852 1.13065Z"/>
<path id="path7_stroke" d="M 3.48012 12.251L 3.64723 11.1385L 3.64696 11.1384L 3.48012 12.251ZM 0.0845816 5.50543L -1.02975 5.35088L -1.02976 5.35091L 0.0845816 5.50543ZM 5.17438 0.0335393L 5.00753 1.1461L 5.00757 1.1461L 5.17438 0.0335393ZM 7.45621 6.62457C 7.24986 8.11271 6.64939 9.346 5.9051 10.1461C 5.15852 10.9487 4.35124 11.2442 3.64723 11.1385L 3.313 13.3635C 4.95278 13.6098 6.45678 12.8565 7.55251 11.6786C 8.65052 10.4983 9.42337 8.81957 9.68488 6.93361L 7.45621 6.62457ZM 3.64696 11.1384C 2.93915 11.0323 2.23619 10.5053 1.73309 9.50589C 1.23283 8.51208 0.992612 7.14778 1.19892 5.65995L -1.02976 5.35091C -1.29131 7.23719 -1.00534 9.06996 -0.276654 10.5175C 0.449188 11.9595 1.67793 13.1183 3.31327 13.3635L 3.64696 11.1384ZM 1.19892 5.65998C 1.40526 4.17221 2.00571 2.93904 2.74998 2.13889C 3.4966 1.33622 4.30384 1.04057 5.00753 1.1461L 5.34123 -1.07902C 3.70176 -1.32489 2.19803 -0.571312 1.10251 0.606457C 0.00464377 1.78674 -0.768227 3.46521 -1.02975 5.35088L 1.19892 5.65998ZM 5.00757 1.1461C 5.71578 1.25228 6.41886 1.7793 6.92199 2.77868C 7.4223 3.77246 7.66252 5.13674 7.45621 6.62457L 9.68488 6.93361C 9.94644 5.04734 9.66047 3.21454 8.93168 1.76692C 8.2057 0.324903 6.97676 -0.833806 5.34118 -1.07903L 5.00757 1.1461Z"/>
<path id="path8_stroke" d="M 3.48012 12.251L 3.64723 11.1385L 3.64696 11.1384L 3.48012 12.251ZM 0.0845816 5.50543L -1.02975 5.35088L -1.02976 5.35091L 0.0845816 5.50543ZM 5.17438 0.0335393L 5.00753 1.1461L 5.00757 1.1461L 5.17438 0.0335393ZM 7.45621 6.62457C 7.24986 8.11271 6.64939 9.346 5.9051 10.1461C 5.15852 10.9487 4.35124 11.2442 3.64723 11.1385L 3.313 13.3635C 4.95278 13.6098 6.45678 12.8565 7.55251 11.6786C 8.65052 10.4983 9.42337 8.81957 9.68488 6.93361L 7.45621 6.62457ZM 3.64696 11.1384C 2.93915 11.0323 2.23619 10.5053 1.73309 9.50589C 1.23283 8.51208 0.992612 7.14778 1.19892 5.65995L -1.02976 5.35091C -1.29131 7.23719 -1.00534 9.06996 -0.276654 10.5175C 0.449188 11.9595 1.67793 13.1183 3.31327 13.3635L 3.64696 11.1384ZM 1.19892 5.65998C 1.40526 4.17221 2.00571 2.93904 2.74998 2.13889C 3.4966 1.33622 4.30384 1.04057 5.00753 1.1461L 5.34123 -1.07902C 3.70176 -1.32489 2.19803 -0.571312 1.10251 0.606457C 0.00464375 1.78674 -0.768227 3.46521 -1.02975 5.35088L 1.19892 5.65998ZM 5.00757 1.1461C 5.71578 1.25228 6.41886 1.7793 6.92199 2.77868C 7.4223 3.77246 7.66252 5.13674 7.45621 6.62457L 9.68488 6.93361C 9.94644 5.04734 9.66047 3.21454 8.93168 1.76692C 8.2057 0.324903 6.97676 -0.833806 5.34118 -1.07903L 5.00757 1.1461Z"/>
<path id="path9_stroke" d="M 6.40452 11.6882L 6.05583 10.6186L 6.05556 10.6186L 6.40452 11.6882ZM 0.399504 7.27399L -0.671154 7.61941L -0.671091 7.61961L 0.399504 7.27399ZM 7.61772 4.91713C 8.06712 6.31008 8.0526 7.6604 7.71887 8.70041C 7.38439 9.74276 6.76924 10.386 6.05583 10.6186L 6.7532 12.7578C 8.32884 12.2441 9.36926 10.9212 9.86127 9.38789C 10.354 7.85227 10.3369 6.01747 9.75904 4.22629L 7.61772 4.91713ZM 6.05556 10.6186C 5.34324 10.8511 4.47252 10.6936 3.59547 10.0488C 2.71979 9.405 1.91983 8.32147 1.4701 6.92837L -0.671091 7.61961C -0.0928898 9.41065 0.965137 10.9076 2.26271 11.8616C 3.55893 12.8146 5.17675 13.2721 6.75348 12.7577L 6.05556 10.6186ZM 1.47016 6.92857C 1.02076 5.53562 1.03528 4.1853 1.36901 3.14528C 1.70349 2.10294 2.31864 1.45971 3.03205 1.22714L 2.33468 -0.912056C 0.759046 -0.398405 -0.281375 0.924526 -0.773389 2.45781C -1.26615 3.99343 -1.24904 5.82823 -0.671154 7.61941L 1.47016 6.92857ZM 3.03205 1.22714C 3.74455 0.994871 4.61559 1.15245 5.49273 1.7972C 6.36846 2.44092 7.16834 3.52423 7.61772 4.91713L 9.75904 4.22629C 9.18114 2.43505 8.12302 0.938166 6.82533 -0.0157165C 5.52904 -0.968572 3.91123 -1.42601 2.33468 -0.912056L 3.03205 1.22714Z"/>
<path id="path10_stroke" d="M 12.7663 -1.125C 12.145 -1.125 11.6413 -0.62132 11.6413 0C 11.6413 0.62132 12.145 1.125 12.7663 1.125L 12.7663 -1.125ZM 12.7663 1.125C 13.5516 1.125 14.6827 1.58985 16.0382 2.60354C 17.3865 3.60794 18.7349 4.9747 20.0024 6.57466C 22.5783 9.82082 24.4076 13.5704 24.4076 16.0208L 26.6576 16.0208C 26.6576 12.7778 24.416 8.51694 21.7649 5.17606C 20.4189 3.4825 18.8647 1.91158 17.3857 0.801674C 15.914 -0.298927 14.2932 -1.125 12.7663 -1.125L 12.7663 1.125ZM 24.4076 16.0208C 24.4076 19.3004 23.4645 20.3824 22.813 20.7804C 22.0342 21.2561 21.2392 21.1187 20.5822 21.1187L 20.5822 23.3687C 20.8373 23.3687 22.5175 23.5974 23.9859 22.7005C 25.5816 21.7258 26.6576 19.6963 26.6576 16.0208L 24.4076 16.0208ZM 20.5822 21.1187C 20.6442 21.1187 20.6234 21.129 20.4516 21.0766C 20.2916 21.0283 20.1059 20.9597 19.8604 20.8642C 19.3634 20.6711 18.7256 20.4035 17.9965 20.1307C 16.5481 19.5897 14.6267 19.0127 12.7663 19.0002L 12.7663 21.2502C 14.293 21.2378 15.8238 21.72 17.2086 22.2383C 17.8962 22.4951 18.5203 22.7571 19.0451 22.9613C 19.3104 23.0644 19.5755 23.1613 19.7955 23.2288C 20.0038 23.2923 20.2922 23.3687 20.5822 23.3687L 20.5822 21.1187ZM 12.7663 19.0002C 10.8865 19.0158 9.05916 19.6309 7.57583 20.2002C 6.83286 20.4854 6.1659 20.7572 5.56249 20.9557C 4.9682 21.1529 4.55766 21.2584 4.16872 21.2506L 4.16872 23.5006C 4.82196 23.4928 5.58384 23.317 6.26778 23.0923C 6.94261 22.8689 7.65971 22.578 8.38222 22.3007C 9.82984 21.7448 11.2591 21.2347 12.7663 21.2502L 12.7663 19.0002ZM 4.16872 21.2506C 3.48576 21.2506 2.74962 20.7971 2.12332 19.7353C 1.46211 18.6366 1.11624 17.2706 1.125 15.7558L -1.125 15.7558C -1.11624 17.5508 -0.617777 19.4948 0.18536 20.8785C 1.0234 22.2992 2.37162 23.5006 4.16872 23.5006L 4.16872 21.2506ZM 1.125 15.7558C 1.125 15.2158 1.48774 14.0286 2.28858 12.392C 3.06542 10.8021 4.13366 9.01901 5.383 7.29679C 6.63086 5.57297 7.97739 4.0143 9.34952 2.85411C 10.735 1.67823 11.9075 1.125 12.7663 1.125L 12.7663 -1.125C 11.077 -1.125 9.37957 -0.122504 7.8936 1.13865C 6.39427 2.41549 4.86774 4.17515 3.56107 5.97653C 2.25586 7.7795 1.08809 9.72848 0.267554 11.4031C -0.528992 13.031 -1.125 14.6407 -1.125 15.7558L 1.125 15.7558Z"/>
<path id="path11_fill" d="M 55.0107 15.125L 67.9307 15.125L 67.9307 82.6641L 55.0107 82.6641L 55.0107 77.4688L 61.6074 77.4688L 61.6074 20.3203L 55.0107 20.3203L 55.0107 15.125Z"/>
</defs>
</svg>
