<?xml version="1.0" encoding="UTF-8" standalone="no"?>
<svg width="420px" height="68px" viewBox="0 0 420 68" version="1.1" xmlns="http://www.w3.org/2000/svg" xmlns:xlink="http://www.w3.org/1999/xlink">
    <!-- Generator: Sketch 43.2 (39069) - http://www.bohemiancoding.com/sketch -->
    <title>fotohound logo</title>
    <desc>Created with Sketch.</desc>
    <defs></defs>
    <g id="Page-1" stroke="none" stroke-width="1" fill="none" fill-rule="evenodd">
        <text id="Machine-Learned-Sear" font-family="NEOTERIC-Bold, NEOTERIC" font-size="26" font-weight="bold" line-spacing="28" fill="#9B9B9B">
            <tspan x="68.093" y="61">Machine Learned Search Engine</tspan>
        </text>
        <text id="FOTO-H-UND" font-family="NEOTERIC-Bold, NEOTERIC" font-size="55" font-weight="bold" fill="#9B9B9B">
            <tspan x="66.145" y="39">FOTO H	   UND</tspan>
        </text>
        <text id="]" font-family="NEOTERIC-Bold, NEOTERIC" font-size="76" font-weight="bold" fill="#9B9B9B">
            <tspan x="46.044" y="59">]</tspan>
        </text>
        <text id="[" font-family="NEOTERIC-Bold, NEOTERIC" font-size="76" font-weight="bold" fill="#9B9B9B">
            <tspan x="-3.842" y="59">[</tspan>
        </text>
        <g id="search-engine" transform="translate(11.000000, 14.000000)" fill="#4990E2">
            <path d="M40.8083685,36.503234 L30.1339692,26.0891064 C29.8784606,25.8398298 29.4641859,25.8398298 29.2087645,26.0891064 L28.4377024,26.8413617 L26.8852845,25.3268085 C29.5226327,22.5322553 30.9681016,18.9279149 30.9681016,15.106383 C30.9681016,11.0713191 29.3574986,7.27778723 26.4328885,4.42459574 C23.5082785,1.57140426 19.6199934,0 15.4840508,0 C11.3481082,0 7.45973588,1.57131915 4.53521305,4.42459574 C1.61069022,7.27787234 0,11.0713191 0,15.106383 C0,19.1414468 1.61060298,22.9349787 4.53521305,25.7881702 C7.45982312,28.6413617 11.3481082,30.212766 15.4840508,30.212766 C19.4011231,30.212766 23.095574,28.8025532 25.9600798,26.2295319 L27.5124976,27.7440851 L26.7414355,28.4963404 C26.4859269,28.745617 26.4859269,29.1497872 26.7414355,29.3989787 L37.4158348,39.8130213 C37.5435455,39.937617 37.711035,40 37.8784372,40 C38.0458394,40 38.2133288,39.9377021 38.3410395,39.8130213 L40.8083685,37.4058723 C41.0638772,37.1565957 41.0638772,36.7524255 40.8083685,36.503234 L40.8083685,36.503234 L40.8083685,36.503234 L40.8083685,36.503234 L40.8083685,36.503234 Z M5.4604178,24.8855319 C2.78302914,22.2733617 1.30851133,18.8004255 1.30851133,15.106383 C1.30851133,11.4123404 2.78302914,7.93940426 5.4604178,5.32723404 C8.13780646,2.71506383 11.6976552,1.27659574 15.4840508,1.27659574 C19.2704464,1.27659574 22.8302079,2.71514894 25.5076838,5.32723404 C28.1851597,7.93931915 29.6595902,11.4123404 29.6595902,15.106383 C29.6595902,18.8004255 28.1850724,22.2733617 25.5076838,24.8855319 C22.8302951,27.4977021 19.2704464,28.9361702 15.4840508,28.9361702 C11.6976552,28.9361702 8.13789369,27.497617 5.4604178,24.8855319 L5.4604178,24.8855319 L5.4604178,24.8855319 L5.4604178,24.8855319 L5.4604178,24.8855319 Z M37.8784372,38.4590638 L28.1292426,28.9476596 L29.6713668,27.4431489 L39.4205614,36.9545532 L37.8784372,38.4590638 L37.8784372,38.4590638 L37.8784372,38.4590638 L37.8784372,38.4590638 Z M20.7977408,12.630383 L22.3446629,11.1211915 C22.5705992,10.9008511 22.6002588,10.5535319 22.4149736,10.2995745 C21.8619095,9.54178723 21.18759,8.884 20.4109449,8.34451064 C20.1507256,8.16365957 19.7947233,8.19276596 19.5688742,8.41310638 L18.0219521,9.92229787 C17.8341371,9.83446809 17.6422222,9.75659574 17.4468178,9.68902128 L17.4468178,7.5547234 C17.4468178,7.24297872 17.2159964,6.97685106 16.9009069,6.9252766 C16.4280109,6.84774468 15.9512766,6.80851064 15.4840508,6.80851064 C15.016825,6.80851064 14.5400907,6.84774468 14.0671947,6.9252766 C13.7521052,6.97685106 13.5212838,7.24297872 13.5212838,7.5547234 L13.5212838,9.68902128 C13.3258794,9.75659574 13.1339644,9.83446809 12.9461494,9.92229787 L11.3992273,8.41310638 C11.1733783,8.19276596 10.8174632,8.16374468 10.5571567,8.34442553 C9.78042435,8.884 9.10619208,9.54178723 8.55312795,10.2995745 C8.36784275,10.5534468 8.39758957,10.900766 8.62352586,11.1211064 L10.170448,12.6302979 C10.0804224,12.8135319 10.0006032,13.000766 9.93133933,13.1914043 L7.74359561,13.1914043 C7.42405714,13.1914043 7.15127614,13.4165957 7.09841229,13.724 C7.01894203,14.1854468 6.97872712,14.6505532 6.97872712,15.106383 C6.97872712,15.5621277 7.01894203,16.027234 7.09841229,16.4886809 C7.15127614,16.7960851 7.42405714,17.0212766 7.74359561,17.0212766 L9.93133933,17.0212766 C10.0006032,17.2119149 10.0803351,17.3991489 10.170448,17.582383 L8.62352586,19.0915745 C8.39758957,19.3119149 8.36792998,19.659234 8.55321519,19.9131915 C9.10627931,20.6708936 9.78051159,21.3286809 10.5571567,21.8682553 C10.8174632,22.0491064 11.1733783,22.02 11.3993146,21.7996596 L12.9462367,20.2904681 C13.1339644,20.3782979 13.3259667,20.4561702 13.521371,20.5237447 L13.521371,22.6581277 C13.521371,22.9698723 13.7521924,23.236 14.067282,23.2875745 C14.5401779,23.3650213 15.0169122,23.4043404 15.484138,23.4043404 C15.9513638,23.4043404 16.4280981,23.3651064 16.9009941,23.2875745 C17.2160836,23.236 17.446905,22.9698723 17.446905,22.6581277 L17.446905,20.5237447 C17.6423094,20.4561702 17.8342244,20.378383 18.0220394,20.2904681 L19.5689615,21.7996596 C19.7948105,22.0200851 20.1508128,22.0490213 20.4110321,21.8682553 C21.1877645,21.3286809 21.8619967,20.6708936 22.4150609,19.9131064 C22.6003461,19.659234 22.5705992,19.3119149 22.3447502,19.0915745 L20.7978281,17.582383 C20.8878537,17.399234 20.9676729,17.2119149 21.0369367,17.0212766 L23.2246804,17.0212766 C23.5442189,17.0212766 23.8169999,16.7960851 23.8698638,16.4886809 C23.9492468,16.0273191 23.9895489,15.5622128 23.9895489,15.106383 C23.9895489,14.6505532 23.949334,14.1854468 23.8698638,13.7240851 C23.8169999,13.4166809 23.5442189,13.1914894 23.2246804,13.1914894 L21.0369367,13.1914894 C20.9674984,13.0008511 20.8877664,12.813617 20.7977408,12.630383 L20.7977408,12.630383 L20.7977408,12.630383 L20.7977408,12.630383 L20.7977408,12.630383 Z M15.4840508,11.9148936 C13.6802243,11.9148936 12.2127725,13.3465532 12.2127725,15.106383 C12.2127725,16.8662128 13.6802243,18.2978723 15.4840508,18.2978723 C17.2878773,18.2978723 18.7553291,16.8662128 18.7553291,15.106383 C18.7553291,13.3465532 17.2878773,11.9148936 15.4840508,11.9148936 L15.4840508,11.9148936 L15.4840508,11.9148936 L15.4840508,11.9148936 Z M15.4840508,17.0212766 C14.4017374,17.0212766 13.5212838,16.1622979 13.5212838,15.106383 C13.5212838,14.0504681 14.4017374,13.1914894 15.4840508,13.1914894 C16.5663641,13.1914894 17.4468178,14.0504681 17.4468178,15.106383 C17.4468178,16.1622979 16.5663641,17.0212766 15.4840508,17.0212766 L15.4840508,17.0212766 L15.4840508,17.0212766 L15.4840508,17.0212766 Z M22.6808631,15.106383 C22.6808631,15.3171064 22.6706567,15.5304681 22.6503312,15.7446809 L20.5531365,15.7446809 C20.2546214,15.7446809 19.9938787,15.9417872 19.9195553,16.2239149 C19.8136531,16.6253617 19.6486934,17.0125957 19.4292997,17.3748085 C19.2774251,17.625617 19.3187741,17.9449362 19.5299678,18.1508936 L21.013209,19.5979574 C20.7332749,19.9257872 20.4239428,20.2275745 20.0879171,20.5006809 L18.6046759,19.053617 C18.3935694,18.8476596 18.0663543,18.807234 17.8092754,18.9554043 C17.4378327,19.1695319 17.0408303,19.3304681 16.6295216,19.4337872 C16.3404278,19.506383 16.1383065,19.7606809 16.1383065,20.0519149 L16.1383065,22.0979574 C15.6992573,22.137617 15.2688443,22.137617 14.8297951,22.0979574 L14.8297951,20.0519149 C14.8297951,19.7606809 14.627761,19.5062979 14.33858,19.4337872 C13.9270968,19.3304681 13.5301817,19.1695319 13.1589134,18.9554894 C12.9017473,18.8073191 12.5745322,18.8476596 12.3634257,19.0537021 L10.8801845,20.5006809 C10.5441588,20.2275745 10.234914,19.9258723 9.95497976,19.5980426 L11.4381337,18.1509787 C11.6492402,17.9450213 11.6906764,17.6257872 11.5388019,17.3749787 C11.3193209,17.0125957 11.1543613,16.6252766 11.0484591,16.224 C10.9740484,15.9419574 10.7133929,15.744766 10.4148779,15.744766 L8.31777038,15.744766 C8.29744484,15.5305532 8.28723845,15.3171915 8.28723845,15.1064681 C8.28723845,14.8957447 8.29744484,14.682383 8.31777038,14.4681702 L10.4148779,14.4681702 C10.7133929,14.4681702 10.9740484,14.2710638 11.0484591,13.9890213 C11.1543613,13.5876596 11.3193209,13.2004255 11.5388019,12.8380426 C11.6906764,12.587234 11.6492402,12.268 11.4381337,12.0620426 L9.95497976,10.6149787 C10.234914,10.2871489 10.5441588,9.98544681 10.8801845,9.71234043 L12.3634257,11.1593191 C12.5745322,11.3652766 12.9018345,11.4057021 13.1588261,11.2575319 C13.5302689,11.0434043 13.9272712,10.8824681 14.33858,10.7791489 C14.6276737,10.7065532 14.8297079,10.4522553 14.8297079,10.1610213 L14.8297079,8.11489362 C15.2687571,8.07523404 15.6991701,8.07523404 16.1382192,8.11489362 L16.1382192,10.1609362 C16.1382192,10.4521702 16.3402534,10.7065532 16.6294344,10.7790638 C17.0407431,10.8822979 17.4377454,11.043234 17.8091882,11.2574468 C18.0661798,11.4055319 18.3934821,11.3651915 18.6045886,11.159234 L20.0878298,9.71217021 C20.4238555,9.9852766 20.7331004,10.2870638 21.0130346,10.6148936 L19.5298806,12.0619574 C19.3187741,12.2679149 19.2773379,12.587234 19.4292125,12.8380426 C19.6486062,13.2003404 19.8135659,13.5875745 19.919468,13.9889362 C19.9938787,14.2709787 20.2545342,14.4681702 20.5530492,14.4681702 L22.650244,14.4681702 C22.6706567,14.6822979 22.6808631,14.8956596 22.6808631,15.106383 L22.6808631,15.106383 L22.6808631,15.106383 L22.6808631,15.106383 Z M24.8871877,7.84102128 C24.6624727,7.56493617 24.2510767,7.51880851 23.9680021,7.73795745 C23.6850147,7.95710638 23.6377338,8.3586383 23.8623616,8.6347234 C27.2349187,12.7794043 26.8815334,18.7308085 23.0403548,22.4782979 C18.873793,26.543234 12.0943086,26.543234 7.927834,22.4782979 C3.76135945,18.4133617 3.76127221,11.799234 7.927834,7.73438298 C11.7690126,3.98680851 17.8692052,3.64221277 22.1175054,6.93242553 C22.4004055,7.15157447 22.811976,7.10544681 23.036691,6.8293617 C23.261406,6.5532766 23.2140379,6.15174468 22.9310505,5.93259574 C18.1617884,2.23880851 11.3140869,2.6253617 7.00254202,6.83165957 C2.32583528,11.3942979 2.32583528,18.8182979 7.00254202,23.3809362 C9.34093901,25.6622979 12.4124513,26.8028936 15.4840508,26.8028936 C18.5556503,26.8028936 21.6271626,25.6622128 23.9655596,23.3809362 C28.2771044,19.1746383 28.6732344,12.4939574 24.8871877,7.84102128 L24.8871877,7.84102128 L24.8871877,7.84102128 L24.8871877,7.84102128 Z"></path>
        </g>
        <g id="Stroke-79" transform="translate(270.000000, 3.000000)" stroke-width="2.25" stroke="#4990E2" stroke-linecap="round" stroke-linejoin="round">
            <path d="M17.2265388,5.84131371 C17.4605238,9.16040358 15.7295249,11.9898425 13.3596612,12.1609104 C10.9897976,12.3319783 8.87903248,9.78021495 8.6450475,6.46112508 C8.41106251,3.14203521 10.1420614,0.312596322 12.511925,0.141528385 C14.8817887,-0.0295395525 16.9925538,2.52222384 17.2265388,5.84131371 L17.2265388,5.84131371 Z"></path>
            <path d="M28.2552851,7.37610141 C27.8113081,10.5678187 25.6488863,12.8852476 23.4247675,12.5522152 C21.2012535,12.21981 19.7586309,9.36300659 20.2026078,6.17128927 C20.6465848,2.98019913 22.8090065,0.662770266 25.0325205,0.995175489 C27.2566394,1.32758071 28.699262,4.18438409 28.2552851,7.37610141 L28.2552851,7.37610141 Z" id="Stroke-81"></path>
            <path d="M36.8791472,15.6765338 C36.4351702,18.8682511 34.2727484,21.18568 32.0486296,20.8526476 C29.8251156,20.5202423 28.382493,17.663439 28.8264699,14.4717217 C29.2704469,11.2806315 31.4328686,8.96320264 33.6563826,9.29560787 C35.8805015,9.62801309 37.3231241,12.4848165 36.8791472,15.6765338 L36.8791472,15.6765338 Z" id="Stroke-83"></path>
            <path d="M8.24475669,13.1734477 C9.21958853,16.1854689 8.24967388,19.1993379 6.07750762,19.9052226 C3.90534135,20.6117233 1.35455188,18.7416831 0.3791054,15.729662 C-0.595726432,12.7176408 0.374188216,9.70377182 2.54635448,8.99788711 C4.71852074,8.2920024 7.26992486,10.1614266 8.24475669,13.1734477 L8.24475669,13.1734477 Z" id="Stroke-85"></path>
            <path d="M18.6850345,13.8291193 C23.0733687,13.8291193 30.7995075,23.598233 30.7995075,28.9839371 C30.7995075,35.5630854 26.967372,34.8704781 26.1018338,34.8704781 C25.2369081,34.8704781 21.8991034,32.8665096 18.6850345,32.8665096 C15.4709657,32.8665096 12.5043685,34.9952219 10.5264329,34.9952219 C8.17300187,34.9952219 6.5705616,31.8642151 6.5705616,28.7332083 C6.5705616,25.6022015 13.8489237,13.8291193 18.6850345,13.8291193 L18.6850345,13.8291193 Z" id="Stroke-87"></path>
        </g>
    </g>
</svg>